<?xml version="1.0" encoding="UTF-8" standalone="no"?>
<!-- Created with Inkscape (http://www.inkscape.org/) -->
<svg
   xmlns:dc="http://purl.org/dc/elements/1.1/"
   xmlns:cc="http://web.resource.org/cc/"
   xmlns:rdf="http://www.w3.org/1999/02/22-rdf-syntax-ns#"
   xmlns:svg="http://www.w3.org/2000/svg"
   xmlns="http://www.w3.org/2000/svg"
   xmlns:sodipodi="http://sodipodi.sourceforge.net/DTD/sodipodi-0.dtd"
   xmlns:inkscape="http://www.inkscape.org/namespaces/inkscape"
   id="svg2"
   sodipodi:version="0.32"
   inkscape:version="0.45.1"
   width="424"
   height="331"
   version="1.0"
   sodipodi:docbase="C:\Users\Mikael\Pictures\Internet\Wikipedia\2009\Chromosomes"
   sodipodi:docname="Human karyotype.svg"
   inkscape:output_extension="org.inkscape.output.svg.inkscape">
  <metadata
     id="metadata7">
    <rdf:RDF>
      <cc:Work
         rdf:about="">
        <dc:format>image/svg+xml</dc:format>
        <dc:type
           rdf:resource="http://purl.org/dc/dcmitype/StillImage" />
      </cc:Work>
    </rdf:RDF>
  </metadata>
  <defs
     id="defs5" />
  <sodipodi:namedview
     inkscape:window-height="718"
     inkscape:window-width="1024"
     inkscape:pageshadow="2"
     inkscape:pageopacity="0.0"
     guidetolerance="10.0"
     gridtolerance="10.0"
     objecttolerance="10.0"
     borderopacity="1.0"
     bordercolor="#666666"
     pagecolor="#ffffff"
     id="base"
     inkscape:zoom="1.1903323"
     inkscape:cx="274.43604"
     inkscape:cy="171.15359"
     inkscape:window-x="-8"
     inkscape:window-y="-8"
     inkscape:current-layer="svg2" />
  <path
     style="fill:#000000"
     d="M 265.55764,304.2743 C 264.89941,302.55898 269.17111,295.7098 270.9099,295.69258 C 272.67397,295.67511 272.47196,300.78966 270.6032,303.45769 C 268.84156,305.97278 266.36332,306.37388 265.55764,304.2743 z M 274.75192,304.82909 C 274.04361,303.68302 274.81075,296.79826 276.00713,293.56413 L 276.8519,291.2805 L 278.56739,293.89867 C 279.69616,295.62139 280.17634,297.99833 279.97139,300.84852 C 279.71574,304.4037 279.27348,305.23527 277.50426,305.48739 C 276.31866,305.65634 275.0801,305.3601 274.75192,304.82909 z M 329.4979,297.4302 C 329.76038,293.02372 330.11986,292.1802 331.73526,292.1802 C 333.11165,292.1802 333.75336,292.99798 333.98798,295.05103 C 334.50831,299.60411 333.36544,302.6802 331.15348,302.6802 C 329.40596,302.6802 329.22025,302.09128 329.4979,297.4302 z M 389.62862,301.28099 C 387.79814,299.9425 387.8246,299.77153 390.44848,295.98527 C 393.66441,291.34469 393.9107,287.431 391.1599,284.6802 C 388.69319,282.21349 388.57758,277.61938 390.9099,274.74517 C 392.47644,272.81465 392.86542,272.73914 394.62033,274.02484 C 396.31521,275.26656 396.41879,275.81658 395.38506,278.08538 C 394.3583,280.33887 394.46986,280.99016 396.17463,282.69493 C 399.76183,286.28213 398.22014,296.70303 393.47806,300.92216 C 391.78256,302.43068 391.26668,302.47877 389.62862,301.28099 z M 85.757025,300.07271 C 85.428605,299.21687 85.159898,295.85343 85.159898,292.59841 C 85.159898,288.22621 85.521274,286.6802 86.543267,286.6802 C 89.24863,286.6802 90.239911,297.74304 87.757025,300.22593 C 86.553195,301.42976 86.269431,301.40802 85.757025,300.07271 z M 339.82657,301.01353 C 339.4599,300.64687 339.1599,297.94687 339.1599,295.01353 C 339.1599,291.15015 339.53958,289.6802 340.53746,289.6802 C 342.91482,289.6802 343.83211,292.0134 343.38778,296.9302 C 342.99061,301.32503 341.66175,302.84872 339.82657,301.01353 z M 93.636299,296.3714 C 92.723815,290.28652 93.356324,286.2548 95.280603,285.89033 C 97.274376,285.51269 98.127839,288.35391 98.146243,295.4302 C 98.158032,299.96292 97.89502,300.6802 96.221171,300.6802 C 94.702805,300.6802 94.142345,299.74595 93.636299,296.3714 z M 152.16296,293.19492 C 150.617,285.74809 151.10189,282.1802 153.6599,282.1802 C 155.246,282.1802 155.63146,282.80106 155.52247,285.1802 C 155.44688,286.8302 155.81097,289.90205 156.33156,292.00653 C 157.00382,294.72411 156.93572,296.24539 156.09655,297.25653 C 154.09699,299.66585 153.34516,298.88954 152.16296,293.19492 z M 143.1599,289.75352 C 143.1599,283.41856 143.36251,282.6802 145.10088,282.6802 C 147.82796,282.6802 148.04114,283.4033 147.30845,290.16812 C 146.81122,294.75895 146.2516,296.23429 144.9099,296.49144 C 143.37656,296.78532 143.1599,295.95113 143.1599,289.75352 z M 401.82657,292.01353 C 401.4599,291.64687 401.1599,288.94687 401.1599,286.01353 C 401.1599,281.45696 401.4342,280.6802 403.04327,280.6802 C 405.16071,280.6802 406.12555,283.24544 406.14625,288.9302 C 406.15708,291.90486 405.78085,292.6802 404.32657,292.6802 C 403.31823,292.6802 402.19323,292.3802 401.82657,292.01353 z M 17.107139,224.58162 C 16.148307,222.79003 16.21989,222.22613 17.496872,221.5115 C 20.83757,219.64195 21.911261,217.5945 22.560564,211.85542 C 23.282681,205.47275 26.514621,200.01809 28.076715,202.54561 C 29.225492,204.40437 28.143931,217.69556 26.595099,220.75303 C 23.960099,225.95465 18.928562,227.98498 17.107139,224.58162 z M 145.12617,225.68926 C 142.91891,224.44241 142.40844,203.18254 144.56589,202.35465 C 147.19336,201.34639 148.04118,204.12257 148.27256,214.49214 C 148.50581,224.94572 147.86253,227.23499 145.12617,225.68926 z M 338.33509,224.3913 C 337.62623,223.53717 337.56755,221.76622 338.16114,219.1413 C 338.65379,216.96269 339.3173,213.53615 339.63559,211.52675 C 340.28336,207.43729 342.36797,206.03112 344.54916,208.21231 C 345.812,209.47516 345.76314,210.13832 344.16549,213.41982 C 343.01962,215.77337 342.67596,217.59247 343.24688,218.28216 C 344.44426,219.72865 342.3829,225.6802 340.68452,225.6802 C 339.98067,225.6802 338.92343,225.10019 338.33509,224.3913 z M 34.217812,221.89196 C 32.616853,220.291 31.021714,217.45092 30.673058,215.58066 C 29.865647,211.24957 32.077031,204.31976 34.409898,203.87054 C 35.912033,203.58128 36.164403,204.35835 36.191701,209.35688 C 36.227494,215.91065 37.322427,217.9119 41.659898,219.3513 C 46.231894,220.86854 45.752074,224.08991 40.894272,224.4915 C 37.835697,224.74434 36.582094,224.25624 34.217812,221.89196 z M 80.492992,223.10585 C 80.160718,222.23995 80.432046,219.87745 81.095944,217.85585 C 81.759842,215.83424 82.833326,211.4802 83.481464,208.1802 C 84.892529,200.99576 87.133311,200.0766 88.397975,206.16346 C 89.331245,210.65533 87.913495,218.88112 85.596577,222.41718 C 83.878029,225.04002 81.365313,225.37908 80.492992,223.10585 z M 151.7787,222.9302 C 151.49492,221.9677 151.41195,217.59775 151.59432,213.2192 C 151.93577,205.02143 152.87341,203.36762 155.80181,205.79798 C 157.08065,206.85932 157.25251,208.36293 156.71659,213.80161 C 156.27672,218.26566 156.42351,220.72508 157.15686,221.17832 C 157.94862,221.66765 157.92875,222.25379 157.08601,223.26923 C 155.45889,225.22979 152.39909,225.03433 151.7787,222.9302 z M 392.44508,222.9302 C 392.01323,221.9677 391.6599,217.5802 391.6599,213.1802 C 391.6599,207.15149 391.99082,205.1802 393.00287,205.1802 C 396.44507,205.1802 398.84921,222.81797 395.57811,224.07321 C 393.38276,224.91565 393.32674,224.89521 392.44508,222.9302 z M 265.37111,222.4302 C 264.65474,221.56392 264.7227,219.66567 265.59248,216.24655 C 266.50605,212.65528 266.55972,210.5504 265.78975,208.51051 C 265.00728,206.43751 265.04793,205.39217 265.94593,204.49417 C 267.54555,202.89455 268.65635,204.1171 270.49866,209.5049 C 271.98944,213.86471 271.65903,217.01053 269.2345,221.54081 C 267.92932,223.97955 266.85656,224.22651 265.37111,222.4302 z M 401.53234,222.4302 C 401.0525,221.7427 400.66091,217.5802 400.66214,213.1802 C 400.66394,206.74207 400.95679,205.1802 402.16214,205.1802 C 403.00087,205.1802 403.81206,206.28023 404.00572,207.6802 C 404.19592,209.0552 404.69835,210.6302 405.12224,211.1802 C 406.34607,212.76813 406.10839,222.09178 404.82324,222.90943 C 403.18149,223.95395 402.5296,223.85902 401.53234,222.4302 z M 275.73479,221.50411 C 274.43626,217.40178 274.34881,212.73012 275.50818,209.39808 C 277.11283,204.78628 278.27712,203.51658 279.95213,204.55179 C 281.5435,205.53531 280.45082,208.6802 278.51773,208.6802 C 277.41542,208.6802 277.32582,209.12172 278.12507,210.61513 C 278.69462,211.67933 279.27295,214.70517 279.41026,217.3392 C 279.61279,221.22469 279.32912,222.19437 277.90688,222.47819 C 276.94271,222.67059 275.96527,222.23226 275.73479,221.50411 z M 329.63722,221.6435 C 329.28483,221.07332 329.2972,218.82698 329.66472,216.65165 C 330.26987,213.06983 330.09797,212.60715 327.84356,211.75003 C 324.79848,210.59229 324.03971,209.49271 325.10096,207.77556 C 326.123,206.12186 331.48514,207.16224 333.31717,209.36969 C 335.01372,211.41392 335.5179,219.54391 334.05727,221.30386 C 332.70536,222.93282 330.53703,223.09943 329.63722,221.6435 z M 94.595047,216.37808 C 92.432572,214.51799 91.930162,213.24316 91.978525,209.73883 C 92.040642,205.23796 93.243071,202.99554 95.009134,204.08702 C 95.572059,204.43493 95.978973,205.49822 95.913387,206.44989 C 95.512233,212.27074 97.956504,214.6345 104.4099,214.66655 C 106.48868,214.67687 107.1599,215.16836 107.1599,216.6802 C 107.1599,219.75824 98.276394,219.54464 94.595047,216.37808 z M 32.802497,138.81809 C 27.426993,129.71483 26.867985,125.03185 30.159898,116.6802 C 31.259898,113.88948 32.159898,110.58383 32.159898,109.33431 C 32.159898,106.06005 34.359618,103.43587 36.436279,104.23276 C 38.657857,105.08526 38.610102,106.80167 36.218759,112.05099 C 32.909191,119.31594 32.550027,125.85133 35.155693,131.39464 C 36.390565,134.02172 38.246686,137.24637 39.280407,138.56053 C 42.207097,142.28121 41.362101,146.6802 37.72071,146.6802 C 37.569123,146.6802 35.355927,143.14225 32.802497,138.81809 z M 86.561296,143.91489 C 85.028092,142.88956 83.870057,131.97737 85.206779,131.15123 C 85.923445,130.7083 85.877282,130.04459 85.061434,129.06156 C 84.176424,127.99519 84.14867,127.00026 84.954595,125.23145 C 85.671433,123.65816 85.729855,121.70413 85.125625,119.51106 C 83.356725,113.09079 83.206868,108.88611 84.702701,107.64468 C 88.765968,104.27246 90.337228,111.35274 90.136539,132.13016 C 90.013866,144.83055 89.662479,145.9888 86.561296,143.91489 z M 275.68006,141.9302 C 275.2969,140.4177 274.771,134.8355 274.51139,129.5253 C 274.06953,120.48745 274.18308,119.73651 276.28819,117.7753 C 280.3013,114.03653 283.02158,115.46541 280.63786,120.06005 C 279.48725,122.27785 279.3998,124.70275 280.17648,132.85416 C 280.70354,138.38588 280.88887,143.30971 280.58832,143.79601 C 279.37199,145.76407 276.36137,144.61962 275.68006,141.9302 z M 94.662679,142.4302 C 94.423732,141.7427 94.252372,139.1552 94.281879,136.6802 C 94.311387,134.2052 93.915294,129.72888 93.401673,126.73283 C 92.147752,119.41845 93.852261,112.31586 96.97076,111.86065 C 99.422538,111.50276 99.665488,112.80001 98.270512,118.80091 C 97.708335,121.21928 97.858331,123.67092 98.722211,126.18378 C 99.433568,128.25297 100.02389,130.67366 100.03404,131.56307 C 100.0442,132.45249 100.33285,134.30639 100.67549,135.68285 C 101.57678,139.30346 99.649158,143.6802 97.153264,143.6802 C 96.022389,143.6802 94.901626,143.1177 94.662679,142.4302 z M 266.6901,141.50034 C 265.55088,138.23702 264.50841,125.9518 265.17384,123.63159 C 266.49896,119.01116 269.1809,114.6802 270.71696,114.6802 C 273.23015,114.6802 273.47174,117.43957 271.2704,121.0014 C 270.12421,122.85599 269.45506,124.64203 269.78342,124.97038 C 270.11177,125.29874 270.58224,127.95527 270.82891,130.8738 C 271.79967,142.35945 271.82447,142.15683 269.40543,142.50034 C 268.16547,142.67641 266.94357,142.22641 266.6901,141.50034 z M 391.96032,142.14729 C 391.62919,141.81616 391.60261,137.98045 391.90124,133.62348 C 392.44347,125.71253 392.43928,125.69539 388.83326,121.0669 C 385.92775,117.33755 385.41978,116.06312 386.23309,114.54343 C 388.29758,110.68592 393.6933,116.32054 396.68051,125.4534 C 397.62181,128.33127 398.13994,131.6971 397.83191,132.93304 C 397.52388,134.16898 396.89128,136.75248 396.42612,138.67416 C 395.64984,141.88118 393.42472,143.61169 391.96032,142.14729 z M 20.836473,140.92493 C 19.576077,140.63485 19.229814,139.99192 19.715069,138.84274 C 21.237345,135.23766 21.351325,132.43556 20.150194,128.14554 C 19.025894,124.12993 19.127388,123.0344 21.133408,117.5327 C 22.693068,113.25518 23.188608,110.26121 22.770104,107.64403 C 22.345903,104.99122 22.561596,103.74003 23.505567,103.3778 C 26.545157,102.2114 27.359013,104.23755 26.685972,111.29563 C 26.3249,115.08215 25.946322,122.77393 25.844688,128.38849 C 25.649486,139.172 24.602909,141.79176 20.836473,140.92493 z M 325.65937,139.45128 C 323.77595,133.70833 324.11465,131.92712 327.68644,128.79104 L 331.17464,125.72837 L 327.14817,123.67422 C 323.63944,121.88419 323.25727,121.36678 324.17599,119.65014 C 324.75584,118.56667 325.68678,117.6802 326.24474,117.6802 C 327.99561,117.6802 332.58329,120.38558 334.58704,122.59969 C 336.4011,124.6042 336.41827,124.91519 334.89161,128.11662 C 334.00179,129.98259 332.34814,131.80307 331.21683,132.16213 C 329.68667,132.64778 329.1599,133.6627 329.1599,136.12514 C 329.1599,140.41211 326.73128,142.71974 325.65937,139.45128 z M 402.12058,136.4302 C 398.85921,128.93892 399.1965,121.24628 403.02188,115.87402 C 405.76177,112.02621 409.1599,111.55629 409.1599,115.02521 C 409.1599,116.31497 408.2599,118.18471 407.1599,119.1802 C 404.67928,121.42513 404.43486,129.37376 406.65311,135.66095 C 407.47437,137.98867 407.89782,140.29524 407.59409,140.78668 C 406.27333,142.92372 404.24458,141.309 402.12058,136.4302 z M 143.48918,137.9302 C 142.85176,136.4177 141.78378,131.9957 141.11589,128.10354 C 140.0332,121.7941 140.09635,120.60154 141.69838,117.10354 C 144.09166,111.87784 146.04629,109.69937 147.75386,110.35463 C 149.74727,111.11957 149.49703,113.99448 147.08054,118.09013 C 145.9369,120.02846 145.23925,121.99957 145.53021,122.47036 C 145.82118,122.94115 146.53056,125.99346 147.10662,129.25327 C 147.68267,132.51308 148.43278,136.4177 148.77352,137.9302 C 149.31451,140.33153 149.09226,140.6802 147.02059,140.6802 C 145.38007,140.6802 144.29057,139.83178 143.48918,137.9302 z M 205.54469,138.92213 C 203.96717,137.34462 203.99294,135.97228 205.78757,125.98576 C 206.3139,123.05698 206.06219,122.66621 202.76077,121.28679 C 197.99232,119.29441 197.63699,115.6802 202.20956,115.6802 C 210.04435,115.6802 213.29699,120.6467 211.24355,129.47434 C 210.64149,132.06256 210.26387,135.47668 210.4044,137.06126 C 210.70527,140.45389 208.08124,141.45868 205.54469,138.92213 z M 156.9424,136.89318 C 152.33479,133.53061 150.25279,129.47589 150.60375,124.54859 C 151.0606,118.13457 156.46962,112.43386 160.59613,114.01736 C 163.30335,115.05621 162.43521,118.38858 159.1599,119.53036 C 156.54926,120.44043 156.1599,121.06055 156.1599,124.30829 C 156.1599,127.44407 156.87896,128.71004 160.6599,132.23102 C 163.1349,134.53585 165.1599,137.1548 165.1599,138.05091 C 165.1599,140.54626 161.17971,139.9855 156.9424,136.89318 z M 216.58671,139.07686 C 215.90147,138.79243 215.61914,135.3045 215.80571,129.42817 C 216.08041,120.77596 215.94821,120.06868 213.5978,117.61539 C 212.0204,115.96893 211.3332,114.39216 211.73579,113.34302 C 212.62103,111.03614 214.23043,111.26302 217.32308,114.13069 C 219.68885,116.32435 220.03979,117.56766 220.67149,125.99346 C 221.5093,137.16828 220.41705,140.66672 216.58671,139.07686 z M 339.30289,138.78973 C 338.4052,138.22093 338.19398,137.14817 338.67887,135.62042 C 339.76555,132.1966 340.01798,122.6802 339.02212,122.6802 C 338.5479,122.6802 338.1599,122.18266 338.1599,121.57456 C 338.1599,120.96645 337.0349,119.13193 335.6599,117.49783 C 334.2849,115.86374 333.1599,113.70942 333.1599,112.71046 C 333.1599,110.36199 335.98281,109.28834 337.92328,110.89878 C 340.13594,112.73513 343.09755,120.20262 342.50772,122.45814 C 342.19242,123.66383 342.60018,124.63517 343.57933,125.01091 C 345.67045,125.81335 345.6746,132.34118 343.58666,136.52656 C 341.90929,139.88893 341.43397,140.14005 339.30289,138.78973 z M 137.46278,73.027121 C 137.11389,72.117926 137.36995,69.530426 138.03181,67.277121 C 144.28484,45.988483 144.93537,40.384107 142.26674,30.793102 C 141.13627,26.730196 140.45132,23.017696 140.74463,22.543102 C 142.65449,19.452889 147.1599,25.265355 147.1599,30.81949 C 147.1599,32.377096 147.67552,35.579351 148.30573,37.935612 C 149.31198,41.697876 149.07042,43.833359 146.32267,55.466848 C 142.3105,72.45372 139.43202,78.158858 137.46278,73.027121 z M 14.784898,67.555203 C 13.661627,61.938848 14.122892,57.672772 16.316457,53.390365 C 19.470812,47.232245 19.453361,36.509138 16.280629,31.375551 C 14.430413,28.381838 14.094377,26.842485 14.647279,23.893299 C 15.882038,17.30707 19.779559,12.637751 21.593073,15.572078 C 21.896238,16.062609 21.381374,18.522382 20.448931,21.03824 C 18.789725,25.515005 18.802338,25.699279 21.040503,29.681558 C 24.545181,35.917291 24.717224,43.97785 21.547196,53.421199 C 19.542752,59.392335 19.103734,62.199165 19.594995,65.902467 C 20.19951,70.45953 20.117497,70.680203 17.819341,70.680203 C 15.920765,70.680203 15.277381,70.017619 14.784898,67.555203 z M 78.803905,64.482672 C 77.867509,60.986593 78.037758,55.650545 79.294792,49.096984 C 80.229651,44.223093 81.21452,42.365303 84.882397,38.556912 C 88.970057,34.312656 89.225445,33.754033 87.997503,31.743103 C 87.26182,30.538318 84.067689,28.343799 80.899433,26.866394 C 74.720661,23.98514 73.625809,21.418061 78.342461,20.871113 C 81.961653,20.451428 88.505851,23.952894 91.518561,27.920972 C 94.631833,32.021501 94.151332,35.074936 89.571109,40.296441 C 85.42688,45.020908 83.904607,49.963139 83.754657,59.180203 C 83.651897,65.496692 83.434739,66.209737 81.53069,66.482672 C 80.03525,66.697035 79.240965,66.114454 78.803905,64.482672 z M 355.84777,63.225216 C 353.18315,60.560594 351.7637,51.754842 353.03971,45.805005 C 354.41399,39.396977 354.47899,32.649669 353.19888,29.282718 C 351.76348,25.507348 353.75336,20.480415 356.52664,20.87595 C 358.42556,21.14678 358.66966,21.848622 358.74872,27.264897 C 358.79757,30.611479 359.16252,33.875426 359.55972,34.518113 C 359.95693,35.1608 359.49615,39.770514 358.53578,44.761921 C 356.86658,53.43732 356.8681,53.982897 358.57026,57.143612 C 361.37744,62.356219 359.39878,66.776223 355.84777,63.225216 z M 307.74564,60.818929 C 307.45287,60.345228 306.99573,58.432728 306.72975,56.568929 C 306.46378,54.70513 305.71047,50.705203 305.05572,47.680203 C 302.98638,38.119672 303.42554,31.75212 306.48681,26.930203 C 309.32637,22.457503 311.11229,21.712989 313.14024,24.156518 C 314.14072,25.362023 313.79631,26.351463 311.26269,29.550423 C 307.64296,34.120706 307.56351,35.354777 310.1599,46.680203 C 312.74966,57.976717 312.76423,61.680203 310.21892,61.680203 C 309.15138,61.680203 308.0384,61.29263 307.74564,60.818929 z M 33.116055,53.567084 L 25.923788,46.346221 L 26.555447,40.97179 C 27.22372,35.285828 29.381455,31.206894 36.939436,21.342133 C 40.867012,16.215817 41.590863,15.682596 42.876728,16.968462 C 44.162594,18.254327 43.997302,18.966081 41.520945,22.806532 C 36.941696,29.908246 36.782344,30.174669 33.831819,35.662139 C 30.292657,42.244371 30.714601,44.139668 37.15237,50.577437 C 40.728861,54.153928 43.043559,55.639325 45.39289,55.865576 C 47.888356,56.1059 48.659898,56.652527 48.659898,58.180203 C 48.659898,59.812389 47.891941,60.236087 44.48411,60.484075 C 40.49047,60.774691 39.994597,60.472973 33.116055,53.567084 z M 88.003374,58.930203 C 86.843085,53.370558 88.106293,50.078141 93.726268,44.014088 C 97.356567,40.096931 100.20807,33.63872 99.166558,31.692651 C 98.673344,30.771068 95.770074,27.88146 92.714851,25.271301 C 86.965027,20.359073 86.174985,18.742498 88.557712,16.76501 C 89.660053,15.850148 90.347045,16.102131 91.807712,17.957082 C 92.826414,19.250767 95.009898,21.180019 96.659898,22.244308 C 101.31702,25.248264 102.88495,27.710893 103.51216,33.006635 C 104.11698,38.113392 102.13432,43.693029 98.368407,47.482286 C 94.491002,51.383729 92.306674,54.899121 92.861491,56.344951 C 93.185904,57.190357 92.82326,58.279746 92.055615,58.765815 C 90.338393,59.853153 88.213978,59.939335 88.003374,58.930203 z M 292.34617,56.963137 C 288.82411,52.585971 289.14946,47.595065 293.26219,42.910915 C 294.85593,41.095748 296.1577,39.288769 296.15502,38.895407 C 296.15233,38.502045 294.54334,35.049025 292.57947,31.222029 C 289.31752,24.865453 289.15343,24.158103 290.68155,23.040713 C 292.98436,21.356855 294.4463,22.147099 296.05673,25.946242 C 296.81069,27.72492 297.99879,30.530203 298.69693,32.180203 C 301.4401,38.663431 301.31916,41.429218 298.13387,45.057068 C 294.68074,48.989966 294.3225,52.161673 297.1599,53.680203 C 299.54787,54.958204 299.80083,58.220277 297.57811,59.073214 C 295.09733,60.025179 294.67199,59.853635 292.34617,56.963137 z M 162.34449,56.650091 C 159.42102,56.22804 156.88895,55.724657 156.71768,55.531464 C 155.2714,53.900128 150.85226,42.798283 150.83878,40.762389 C 150.78167,32.140336 154.4357,22.680203 157.82312,22.680203 C 159.97217,22.680203 160.1713,24.350659 158.43449,27.80874 C 157.50317,29.663045 156.59215,33.880203 156.41,37.180203 C 155.94254,45.649308 158.83708,50.585327 165.1599,52.101284 C 168.55274,52.914751 169.6599,53.651771 169.6599,55.09687 C 169.6599,57.467614 168.99104,57.609629 162.34449,56.650091 z M 369.46104,54.599945 C 364.44616,52.735594 360.98855,47.12911 361.72707,42.059405 C 361.95776,40.475844 362.43937,35.918977 362.79732,31.933035 C 363.15528,27.947093 364.01062,24.21906 364.69808,23.648518 C 366.5127,22.142516 369.17254,25.117921 368.53616,27.941951 C 367.45494,32.740059 366.93435,42.664367 367.58262,46.119953 C 368.14486,49.116969 368.77856,49.853936 371.21185,50.340593 C 373.14197,50.726616 374.1599,51.540681 374.1599,52.698214 C 374.1599,54.91479 372.31567,55.661191 369.46104,54.599945 z "
     id="path2161"
     sodipodi:nodetypes="csscccccssccsssccsssssssccsssccsssccsssccssssccsssccssssccssssccssccssssssccsssssccssssccsssssccsssccsssssccsssssccssssssccsssssccsssssccsssssssccssssssccsssssccssssssssccssssssccssssssccssssssscccccssssssccsssssccssssssssccsssssccssssssccsssssccsssssssssccssssssccsssssssssccsssssssssccsssssssccsssssssccccssssssssccssssssssssccsssssssssccsssssssccsssssssc" />
  <text
     xml:space="preserve"
     style="font-size:16px;font-style:normal;font-weight:normal;fill:#000000;fill-opacity:1;stroke:none;stroke-width:1px;stroke-linecap:butt;stroke-linejoin:miter;stroke-opacity:1;font-family:Bitstream Vera Sans"
     x="25.128792"
     y="87.296303"
     id="text2157"><tspan
       sodipodi:role="line"
       id="tspan2159"
       x="25.128792"
       y="87.296303">1</tspan></text>
  <text
     xml:space="preserve"
     style="font-size:16px;font-style:normal;font-weight:normal;fill:#000000;fill-opacity:1;stroke:none;stroke-width:1px;stroke-linecap:butt;stroke-linejoin:miter;stroke-opacity:1;font-family:Bitstream Vera Sans"
     x="79.846771"
     y="87.124489"
     id="text2161"><tspan
       sodipodi:role="line"
       id="tspan2163"
       x="79.846771"
       y="87.124489">2</tspan></text>
  <text
     xml:space="preserve"
     style="font-size:16px;font-style:normal;font-weight:normal;fill:#000000;fill-opacity:1;stroke:none;stroke-width:1px;stroke-linecap:butt;stroke-linejoin:miter;stroke-opacity:1;font-family:Bitstream Vera Sans"
     x="147.01778"
     y="87.160522"
     id="text2165"><tspan
       sodipodi:role="line"
       id="tspan2167"
       x="147.01778"
       y="87.160522">3</tspan></text>
  <text
     xml:space="preserve"
     style="font-size:16px;font-style:normal;font-weight:normal;fill:#000000;fill-opacity:1;stroke:none;stroke-width:1px;stroke-linecap:butt;stroke-linejoin:miter;stroke-opacity:1;font-family:Bitstream Vera Sans"
     x="296.94965"
     y="87.423058"
     id="text2169"><tspan
       sodipodi:role="line"
       id="tspan2171"
       x="296.94965"
       y="87.423058">4</tspan></text>
  <text
     xml:space="preserve"
     style="font-size:16px;font-style:normal;font-weight:normal;fill:#000000;fill-opacity:1;stroke:none;stroke-width:1px;stroke-linecap:butt;stroke-linejoin:miter;stroke-opacity:1;font-family:Bitstream Vera Sans"
     x="357.0694"
     y="87.265541"
     id="text2173"><tspan
       sodipodi:role="line"
       id="tspan2175"
       x="357.0694"
       y="87.265541">5</tspan></text>
  <text
     xml:space="preserve"
     style="font-size:16px;font-style:normal;font-weight:normal;fill:#000000;fill-opacity:1;stroke:none;stroke-width:1px;stroke-linecap:butt;stroke-linejoin:miter;stroke-opacity:1;font-family:Bitstream Vera Sans"
     x="21.69413"
     y="161.69843"
     id="text2177"><tspan
       sodipodi:role="line"
       id="tspan2179"
       x="21.69413"
       y="161.69843">6</tspan></text>
  <text
     xml:space="preserve"
     style="font-size:16px;font-style:normal;font-weight:normal;fill:#000000;fill-opacity:1;stroke:none;stroke-width:1px;stroke-linecap:butt;stroke-linejoin:miter;stroke-opacity:1;font-family:Bitstream Vera Sans"
     x="87.37056"
     y="162.13959"
     id="text2181"><tspan
       sodipodi:role="line"
       id="tspan2183"
       x="87.37056"
       y="162.13959">7</tspan></text>
  <text
     xml:space="preserve"
     style="font-size:16px;font-style:normal;font-weight:normal;fill:#000000;fill-opacity:1;stroke:none;stroke-width:1px;stroke-linecap:butt;stroke-linejoin:miter;stroke-opacity:1;font-family:Bitstream Vera Sans"
     x="147.01778"
     y="162.1396"
     id="text2185"><tspan
       sodipodi:role="line"
       id="tspan2187"
       x="147.01778"
       y="162.1396">8</tspan></text>
  <text
     xml:space="preserve"
     style="font-size:16px;font-style:normal;font-weight:normal;fill:#000000;fill-opacity:1;stroke:none;stroke-width:1px;stroke-linecap:butt;stroke-linejoin:miter;stroke-opacity:1;font-family:Bitstream Vera Sans"
     x="208.34518"
     y="162.03459"
     id="text2189"><tspan
       sodipodi:role="line"
       id="tspan2191"
       x="208.34518"
       y="162.03459">9</tspan></text>
  <text
     xml:space="preserve"
     style="font-size:16px;font-style:normal;font-weight:normal;fill:#000000;fill-opacity:1;stroke:none;stroke-width:1px;stroke-linecap:butt;stroke-linejoin:miter;stroke-opacity:1;font-family:Bitstream Vera Sans"
     x="266.46069"
     y="162.01439"
     id="text2193"><tspan
       sodipodi:role="line"
       id="tspan2195"
       x="266.46069"
       y="162.01439">10</tspan></text>
  <text
     xml:space="preserve"
     style="font-size:16px;font-style:normal;font-weight:normal;fill:#000000;fill-opacity:1;stroke:none;stroke-width:1px;stroke-linecap:butt;stroke-linejoin:miter;stroke-opacity:1;font-family:Bitstream Vera Sans"
     x="324.35342"
     y="162.09302"
     id="text2197"><tspan
       sodipodi:role="line"
       id="tspan2199"
       x="324.35342"
       y="162.09302">11</tspan></text>
  <text
     xml:space="preserve"
     style="font-size:16px;font-style:normal;font-weight:normal;fill:#000000;fill-opacity:1;stroke:none;stroke-width:1px;stroke-linecap:butt;stroke-linejoin:miter;stroke-opacity:1;font-family:Bitstream Vera Sans"
     x="388.44193"
     y="162.19209"
     id="text2201"><tspan
       sodipodi:role="line"
       id="tspan2203"
       x="388.44193"
       y="162.19209">12</tspan></text>
  <text
     xml:space="preserve"
     style="font-size:16px;font-style:normal;font-weight:normal;fill:#000000;fill-opacity:1;stroke:none;stroke-width:1px;stroke-linecap:butt;stroke-linejoin:miter;stroke-opacity:1;font-family:Bitstream Vera Sans"
     x="19.322334"
     y="241.94923"
     id="text2205"><tspan
       sodipodi:role="line"
       id="tspan2207"
       x="19.322334"
       y="241.94923">13</tspan></text>
  <text
     xml:space="preserve"
     style="font-size:16px;font-style:normal;font-weight:normal;fill:#000000;fill-opacity:1;stroke:none;stroke-width:1px;stroke-linecap:butt;stroke-linejoin:miter;stroke-opacity:1;font-family:Bitstream Vera Sans"
     x="80.96479"
     y="241.84422"
     id="text2209"><tspan
       sodipodi:role="line"
       id="tspan2211"
       x="80.96479"
       y="241.84422">14</tspan></text>
  <text
     xml:space="preserve"
     style="font-size:16px;font-style:normal;font-weight:normal;fill:#000000;fill-opacity:1;stroke:none;stroke-width:1px;stroke-linecap:butt;stroke-linejoin:miter;stroke-opacity:1;font-family:Bitstream Vera Sans"
     x="141.03206"
     y="241.94923"
     id="text2213"><tspan
       sodipodi:role="line"
       id="tspan2215"
       x="141.03206"
       y="241.94923">15</tspan></text>
  <text
     xml:space="preserve"
     style="font-size:16px;font-style:normal;font-weight:normal;fill:#000000;fill-opacity:1;stroke:none;stroke-width:1px;stroke-linecap:butt;stroke-linejoin:miter;stroke-opacity:1;font-family:Bitstream Vera Sans"
     x="262.11166"
     y="241.52919"
     id="text2217"><tspan
       sodipodi:role="line"
       id="tspan2219"
       x="262.11166"
       y="241.52919">16</tspan></text>
  <text
     xml:space="preserve"
     style="font-size:16px;font-style:normal;font-weight:normal;fill:#000000;fill-opacity:1;stroke:none;stroke-width:1px;stroke-linecap:butt;stroke-linejoin:miter;stroke-opacity:1;font-family:Bitstream Vera Sans"
     x="326.58948"
     y="241.52917"
     id="text2221"><tspan
       sodipodi:role="line"
       id="tspan2223"
       x="326.58948"
       y="241.52917">17</tspan></text>
  <text
     xml:space="preserve"
     style="font-size:16px;font-style:normal;font-weight:normal;fill:#000000;fill-opacity:1;stroke:none;stroke-width:1px;stroke-linecap:butt;stroke-linejoin:miter;stroke-opacity:1;font-family:Bitstream Vera Sans"
     x="388.12692"
     y="240.26903"
     id="text2225"><tspan
       sodipodi:role="line"
       id="tspan2227"
       x="388.12692"
       y="240.26903">18</tspan></text>
  <text
     xml:space="preserve"
     style="font-size:16px;font-style:normal;font-weight:normal;fill:#000000;fill-opacity:1;stroke:none;stroke-width:1px;stroke-linecap:butt;stroke-linejoin:miter;stroke-opacity:1;font-family:Bitstream Vera Sans"
     x="80.859772"
     y="317.13831"
     id="text2229"><tspan
       sodipodi:role="line"
       id="tspan2231"
       x="80.859772"
       y="317.13831">19</tspan></text>
  <text
     xml:space="preserve"
     style="font-size:16px;font-style:normal;font-weight:normal;fill:#000000;fill-opacity:1;stroke:none;stroke-width:1px;stroke-linecap:butt;stroke-linejoin:miter;stroke-opacity:1;font-family:Bitstream Vera Sans"
     x="140.29695"
     y="316.92831"
     id="text2233"><tspan
       sodipodi:role="line"
       id="tspan2235"
       x="140.29695"
       y="316.92831">20</tspan></text>
  <text
     xml:space="preserve"
     style="font-size:16px;font-style:normal;font-weight:normal;fill:#000000;fill-opacity:1;stroke:none;stroke-width:1px;stroke-linecap:butt;stroke-linejoin:miter;stroke-opacity:1;font-family:Bitstream Vera Sans"
     x="264.63199"
     y="319.44861"
     id="text2237"><tspan
       sodipodi:role="line"
       id="tspan2239"
       x="264.63199"
       y="319.44861">21</tspan></text>
  <text
     xml:space="preserve"
     style="font-size:16px;font-style:normal;font-weight:normal;fill:#000000;fill-opacity:1;stroke:none;stroke-width:1px;stroke-linecap:butt;stroke-linejoin:miter;stroke-opacity:1;font-family:Bitstream Vera Sans"
     x="326.1694"
     y="317.7684"
     id="text2241"><tspan
       sodipodi:role="line"
       id="tspan2243"
       x="326.1694"
       y="317.7684">22</tspan></text>
  <text
     xml:space="preserve"
     style="font-size:16px;font-style:normal;font-weight:normal;fill:#000000;fill-opacity:1;stroke:none;stroke-width:1px;stroke-linecap:butt;stroke-linejoin:miter;stroke-opacity:1;font-family:Bitstream Vera Sans"
     x="386.23669"
     y="317.34836"
     id="text2245"><tspan
       sodipodi:role="line"
       id="tspan2247"
       x="386.23669"
       y="317.34836">23</tspan></text>
</svg>
